{"title":"City Of God-720p MP4 AAC x264 BRRip 2002-CC","uid":7437378,"size":2425528908,"categoryP":"video","categoryS":"hd___movies","magnet":"?xt=urn:btih:c8f7e803c0bdef87ad6d8e5748c5c0aa91934260&amp;dn=City+Of+God-720p+MP4+AAC+x264+BRRip+2002-CC&amp;tr=udp%3A%2F%2Ftracker.openbittorrent.com%3A80&amp;tr=udp%3A%2F%2Fopen.demonii.com%3A1337&amp;tr=udp%3A%2F%2Ftracker.coppersurfer.tk%3A6969&amp;tr=udp%3A%2F%2Fexodus.desync.com%3A6969","seeders":7,"leechers":4,"uploader":"Caveman44","files":-1,"time":1342119054,"description":"Also called: Cidade de Deus\n &lt;a href=&quot;\nhttp://www.imdb.com/title/tt0317248/&quot; rel=&quot;nofollow&quot; target=&quot;_NEW&quot;&gt;\nhttp://www.imdb.com/title/tt0317248/&lt;/a&gt;\n\nSource: City.Of.God.2002.720p.BluRay.x264-SiNNERS \n\nSubs: Bulgarian, Chinese, Croatian, Danish, Dutch, English, Estonian, Farsi-Persian, Finnish, French, Greek, Hungarian, Indonesian, Portuguese, Romanian, Slovenian, Spanish, Swedish and Vietnamese.\n\nSample and Screens included.\n\nGeneral\nComplete name                    : City Of God-720p MP4 AAC x264 BRRip 2002-CC.mp4\nFormat                           : MPEG-4\nFormat profile                   : Base Media\nCodec ID                         : isom\nFile size                        : 2.23 GiB\nDuration                         : 2h 9mn\nOverall bit rate                 : 2 463 Kbps\nEncoded date                     : UTC 2012-06-28 15:15:44\n\nVideo\nID                               : 1\nFormat                           : AVC\nFormat/Info                      : Advanced Video Codec\nFormat profile                   : &lt;a class=&quot;__cf_email__&quot; href=&quot;/cdn-cgi/l/email-protection&quot; data-cfemail=&quot;276f4e404f676b140916&quot;&gt;[email&amp;#160;protected]&lt;/a&gt;&lt;script cf-hash='f9e31' type=&quot;text/javascript&quot;&gt;\n/* &lt;![CDATA[ */!function(){try{var t=&quot;currentScript&quot;in document?document.currentScript:function(){for(var t=document.getElementsByTagName(&quot;script&quot;),e=t.length;e--;)if(t[e].getAttribute(&quot;cf-hash&quot;))return t[e]}();if(t&amp;&amp;t.previousSibling){var e,r,n,i,c=t.previousSibling,a=c.getAttribute(&quot;data-cfemail&quot;);if(a){for(e=&quot;&quot;,r=parseInt(a.substr(0,2),16),n=2;a.length-n;n+=2)i=parseInt(a.substr(n,2),16)^r,e+=String.fromCharCode(i);e=document.createTextNode(e),c.parentNode.replaceChild(e,c)}}}catch(u){}}();/* ]]&gt; */&lt;/script&gt;\nFormat settings, CABAC           : Yes\nFormat settings, ReFrames        : 5 frames\nCodec ID                         : avc1\nCodec ID/Info                    : Advanced Video Coding\nDuration                         : 2h 9mn\nBit rate mode                    : Variable\nBit rate                         : 2 074 Kbps\nNominal bit rate                 : 2 117 Kbps\nMaximum bit rate                 : 33.6 Mbps\nWidth                            : 1 280 pixels\nHeight                           : 688 pixels\nDisplay aspect ratio             : 1.860\nFrame rate mode                  : Variable\nFrame rate                       : 23.976 fps\nMinimum frame rate               : 23.810 fps\nMaximum frame rate               : 24.390 fps\nResolution                       : 24 bits\nColorimetry                      : 4:2:0\nScan type                        : Progressive\nBits/(Pixel*Frame)               : 0.098\nStream size                      : 1.88 GiB (84%)\nWriting library                  : x264 core 112\n\nAudio\nID                               : 2\nFormat                           : AAC\nFormat/Info                      : Advanced Audio Codec\nFormat version                   : Version 4\nFormat profile                   : LC\nFormat settings, SBR             : No\nCodec ID                         : 40\nDuration                         : 2h 9mn\nBit rate mode                    : Variable\nBit rate                         : 384 Kbps\nMaximum bit rate                 : 573 Kbps\nChannel(s)                       : 6 channels\nChannel positions                : Front: L C R, Rear: L R, LFE\nSampling rate                    : 48.0 KHz\nResolution                       : 16 bits\nStream size                      : 356 MiB (16%)\nLanguage                         : Portuguese\n\nEnjoy...\n\nRequested by varuneric. ( more coming up )","torrent":{"xt":"urn:btih:c8f7e803c0bdef87ad6d8e5748c5c0aa91934260","amp;dn":"City+Of+God-720p+MP4+AAC+x264+BRRip+2002-CC","amp;tr":["udp%3A%2F%2Ftracker.openbittorrent.com%3A80","udp%3A%2F%2Fopen.demonii.com%3A1337","udp%3A%2F%2Ftracker.coppersurfer.tk%3A6969","udp%3A%2F%2Fexodus.desync.com%3A6969"],"infoHash":"c8f7e803c0bdef87ad6d8e5748c5c0aa91934260","infoHashBuffer":{"type":"Buffer","data":[200,247,232,3,192,189,239,135,173,109,142,87,72,197,192,170,145,147,66,96]},"announce":[],"urlList":[]}}